<svg xmlns="http://www.w3.org/2000/svg" width="103.17322" height="104.31332">
  <path fill="#fff" d="M64.566509 22.116383v20.404273l7.130526 4.489881c.188058.05485.595516.05877.783574 0l30.688681-20.690278c0-2.44867-2.28412-4.203876-3.573094-4.203876H64.566509z"/>
  <path fill="#fff" d="M64.566509 50.13308l6.507584 4.470291c.916782.673874 2.021622 0 2.021622 0-1.100922.673874 30.077495-20.035993 30.077495-20.035993v37.501863c0 4.082422-2.61322 5.794531-5.551621 5.794531H64.562591V50.13308z"/>
  <g fill="#fff">
    <path d="M30.87281686 40.72627161c-2.2175151 0-3.98447502 1.04215374-5.28912612 3.12254335-1.30465111 2.0803896-1.9589356 4.83465306-1.9589356 8.26279036 0 3.47906962.65428449 6.2294152 1.9589356 8.25103674 1.3046511 2.02553941 3.01676082 3.03243231 5.13241127 3.03243231 2.18225426 0 3.91395333-.98338567 5.19117934-2.95015701 1.277226-1.96677134 1.91975689-4.69752757 1.91975689-8.1883508 0-3.63970235-.61902365-6.47232323-1.86098882-8.49786264-1.24196518-2.02162154-2.9384034-3.03243231-5.09323256-3.03243231z"/>
    <path d="M-.0000082 11.75361409v79.8266257l60.7270036 12.7330814V4.9e-7L-.0000082 11.75361409zm40.63616009 53.4084202c-2.56620564 3.37720497-5.91206765 5.06972533-10.04150389 5.06972533-4.02365372 0-7.29899405-1.63767016-9.83385671-4.90909262-2.5309448-3.27534032-3.80033507-7.53798419-3.80033507-12.79576734 0-5.55162349 1.28506176-10.04150388 3.85910314-13.46964118 2.57404137-3.4281373 5.98258932-5.14416489 10.22564383-5.14416489 4.00798224 0 7.25197959 1.63767016 9.72415632 4.92084623 2.4760946 3.28317607 3.7141419 7.60850587 3.7141419 12.97990729.00391787 5.52028052-1.28114389 9.9709822-3.84734952 13.34818717z"/>
  </g>
</svg>