<?xml version="1.0" encoding="utf-8"?><!DOCTYPE svg PUBLIC "-//W3C//DTD SVG 1.1//EN" "http://www.w3.org/Graphics/SVG/1.1/DTD/svg11.dtd"><svg xmlns="http://www.w3.org/2000/svg" width="372.368" height="372.572"><path fill="#fff" d="M186.286 0C83.403 0 0 83.404 0 186.286s83.403 186.286 186.286 186.286 186.287-83.403 186.287-186.286S289.169 0 186.286 0zM114.55 33.186c13.264-6.267 24.328-9.952 39.348-13.105 16.896-3.547 48.655-3.589 65.282-.086 17.958 3.785 39.105 11.655 51.021 18.987l3.542 2.18-8.124-.411c-16.147-.815-39.681 5.708-64.945 18.004-7.621 3.708-14.25 6.67-14.732 6.582s-6.695-3.115-13.806-6.726c-14.145-7.183-35.965-14.893-48.02-16.967-4.226-.728-11.435-1.134-16.019-.902-9.947.502-9.502-.018 6.453-7.556zM51.874 285.849c1.93 5.075.157 3.184-6.304-6.729-15.749-24.161-23.706-47.948-27.548-82.352-1.268-11.359-.814-17.857 2.88-41.175 4.605-29.061 21.155-62.681 41.041-83.371 8.469-8.812 9.226-9.027 19.55-5.549 12.537 4.224 25.926 13.47 46.69 32.246l12.115 10.954-6.615 8.128c-30.71 37.727-63.129 91.205-75.346 124.29-6.643 17.987-9.321 36.041-6.463 43.558zm248.831 23.62c-5.358 10.27-38.598 30.342-63.019 38.053-20.128 6.355-46.561 9.049-68.335 6.964-26.004-2.49-52.333-11.83-74.95-26.586-18.953-12.365-23.233-17.448-23.233-27.593 0-20.378 22.405-56.066 60.737-96.753 21.771-23.106 52.096-50.191 55.375-49.457 6.375 1.426 57.344 51.144 76.427 74.548 30.172 37.01 44.043 67.313 36.998 80.824zm39.538-52.752c-3.78 8.293-13.179 24.398-17.299 29.639-2.116 2.694-2.118 2.688-.928-3.126 1.557-7.596-.411-21.544-5.024-35.612-9.986-30.469-43.373-87.149-74.028-125.688l-9.651-12.131 10.44-9.587c13.634-12.518 23.099-20.012 33.311-26.377 8.059-5.024 19.576-9.47 24.525-9.47 3.052 0 13.796 11.15 22.471 23.319 13.433 18.848 23.315 41.694 28.323 65.477 3.235 15.368 3.504 48.261.521 63.591-2.45 12.58-7.618 28.899-12.661 39.965z"/></svg>