<?xml version="1.0" encoding="UTF-8" standalone="no"?><svg xmlns="http://www.w3.org/2000/svg" viewBox="0 0 32 32"><path fill="#fff" d="M16.000001 0C7.1770842 0 0 7.177084 0 16.000001h2.6666669c0-7.3541674 5.979167-13.3333343 13.3333341-13.3333343 4.927083 0 9.234375 2.682292 11.541667 6.666667h-4.875v2.6666653H32V2.6666667h-2.666666v4.5416665C26.47396 2.8697919 21.572919 0 16.000001 0zm13.333333 16.000001c0 7.354165-5.979165 13.333331-13.333333 13.333331-4.927083 0-9.2343755-2.682291-11.5416676-6.666666h4.8749997V20H0v9.333332h2.6666669v-4.541665C5.5260415 29.130208 10.427084 32 16.000001 32 24.822919 32 32 24.822917 32 16.000001z"/></svg>